<svg width="120" height="120" viewBox="0 0 220 320" fill="none" xmlns="http://www.w3.org/2000/svg">
<path fill-rule="evenodd" clip-rule="evenodd" d="M122.623 0.693146C155.622 -5.30684 147.14 28.7061 145.625 61.6931C144.625 83.4655 133.625 93.693 103.625 94.693C81.1246 94.193 69.6246 84.1931 64.6246 61.6931C59.6231 34.6931 96.6215 6.69315 122.623 0.693146Z" fill="#8BC34A"/>
<path fill-rule="evenodd" clip-rule="evenodd" d="M35.1237 117.693C23.9697 118.688 12.6357 119.021 1.12374 118.693C1.12374 143.026 1.12374 167.36 1.12374 191.693C1.12374 192.36 1.12374 193.026 1.12374 193.693C0.125736 168.532 -0.207264 143.198 0.123736 117.693C11.7907 117.693 23.4567 117.693 35.1237 117.693Z" fill="#558B2F"/>
<path fill-rule="evenodd" clip-rule="evenodd" d="M1.12305 191.693C22.792 191.526 44.459 191.693 66.123 192.193C66.679 192.576 67.012 193.076 67.123 193.693C66.79 193.693 66.456 193.693 66.123 193.693C44.456 193.693 22.79 193.693 1.12305 193.693C1.12305 193.026 1.12305 192.36 1.12305 191.693Z" fill="#A68660"/>
<path fill-rule="evenodd" clip-rule="evenodd" d="M145.123 238.693C143.793 223.291 143.793 207.791 145.123 192.193C166.362 191.367 187.528 191.533 208.622 192.693C209.122 168.029 209.289 143.362 209.122 118.693C196.076 118.316 183.076 118.816 170.122 120.193C174.071 121 174.071 121.5 170.122 121.693C170.122 123.026 170.122 124.36 170.122 125.693C169.122 125.693 168.122 125.693 167.122 125.693C167.043 124.263 167.376 122.929 168.122 121.693C167.455 121.36 166.789 121.026 166.122 120.693C159.982 121.963 153.983 123.63 148.122 125.693C155.199 121.724 162.865 119.224 171.122 118.193C184.451 117.693 197.785 117.526 211.122 117.693C211.122 143.026 211.122 168.36 211.122 193.693C189.455 193.693 167.789 193.693 146.123 193.693C146.372 208.718 146.039 223.718 145.123 238.693Z" fill="#A68660"/>
<path fill-rule="evenodd" clip-rule="evenodd" d="M35.123 117.693C75.571 123.307 99.071 146.307 105.623 186.693C107.813 165.477 116.98 147.977 133.123 134.193C137.528 130.323 149.528 123.49 155.123 121.693C166.02 118.193 165.983 119.463 172.123 118.193C172.79 118.526 168.435 121.176 168.123 121.693C167.377 122.929 167.044 124.263 167.123 125.693C168.123 125.693 168.123 122.693 169.123 122.693C169.123 121.36 170.123 123.026 170.123 121.693C174.072 121.5 174.072 121 170.123 120.193C183.077 118.816 196.077 118.316 209.123 118.693C209.29 143.362 209.123 168.029 208.623 192.693C187.529 191.533 166.363 191.367 145.123 192.193C143.793 207.791 143.793 223.291 145.123 238.693C137.221 279.593 112.554 302.593 71.123 307.693C70.055 306.759 68.722 306.425 67.123 306.693C67.123 269.026 67.123 231.36 67.123 193.693C67.012 193.076 66.679 192.576 66.123 192.193C44.459 191.693 22.792 191.526 1.12305 191.693C1.12305 167.36 1.12305 143.026 1.12305 118.693C12.635 119.021 23.969 118.688 35.123 117.693Z" fill="#8BC34A"/>
<path fill-rule="evenodd" clip-rule="evenodd" d="M66.123 193.693C66.456 193.693 66.79 193.693 67.123 193.693C67.123 231.36 67.123 269.026 67.123 306.693C68.722 306.425 70.055 306.759 71.123 307.693C69.456 307.693 67.79 307.693 66.123 307.693C66.123 269.693 66.123 231.693 66.123 193.693Z" fill="#558B2F"/>
</svg>
