<svg width="702" height="308" viewBox="0 0 702 308" fill="none" xmlns="http://www.w3.org/2000/svg">
<path fill-rule="evenodd" clip-rule="evenodd" d="M122.623 0.693146C155.622 -5.30684 147.14 28.7061 145.625 61.6931C144.625 83.4655 133.625 93.693 103.625 94.693C81.1246 94.193 69.6246 84.1931 64.6246 61.6931C59.6231 34.6931 96.6215 6.69315 122.623 0.693146Z" fill="#F48543"/>
<path fill-rule="evenodd" clip-rule="evenodd" d="M377.123 125.193C376.125 148.687 375.792 172.354 376.123 196.193C367.79 196.193 359.456 196.193 351.123 196.193C351.29 173.857 351.123 153.024 350.623 130.693C350.123 124.693 350.123 124.693 346.623 118.193C345.623 116.693 345.123 116.193 342.623 114.193C336.123 110.693 337.123 111.693 334.123 110.693C317.351 107.24 304.366 114.965 300.123 127.693C299.356 129.995 299.123 132.193 299.123 132.193C299.123 132.193 297.956 174.857 298.123 196.193C289.79 196.193 281.456 196.193 273.123 196.193C273.123 160.526 273.123 124.86 273.123 89.1931C281.456 89.1931 289.79 89.1931 298.123 89.1931C297.802 94.7191 298.135 100.053 299.123 105.193C313.743 84.8671 333.077 80.0341 357.123 90.6931C369.307 98.8811 375.973 110.381 377.123 125.193Z" fill="black"/>
<path fill-rule="evenodd" clip-rule="evenodd" d="M561.623 110.693C566.623 109.693 561.623 111.193 566.123 110.193C571.446 109.694 576.779 109.527 582.123 109.693C582.289 102.352 582.123 95.0191 581.623 87.6931C575.989 86.8541 559.623 89.1931 565.123 86.6931C572.123 85.6931 576.123 86.1931 582.623 86.6931C583.29 94.6931 583.29 102.693 582.623 110.693C575.623 110.693 573.123 110.193 561.623 110.693Z" fill="black"/>
<path fill-rule="evenodd" clip-rule="evenodd" d="M565.123 86.6931C575.123 85.1931 575.989 86.8541 581.623 87.6931C582.123 95.0191 582.289 102.352 582.123 109.693C576.779 109.527 571.446 109.694 566.123 110.193C564.886 110.425 565.623 110.193 561.123 111.693C558.974 112.929 559.123 112.693 556.123 114.693C552.812 116.901 551.4 117.403 549.623 119.693C547.168 123.724 545.502 128.057 544.623 132.693C544.123 153.69 543.956 174.69 544.123 195.693C535.79 195.693 527.456 195.693 519.123 195.693C519.123 160.026 519.123 124.36 519.123 88.6931C527.123 88.6931 535.123 88.6931 543.123 88.6931C542.957 94.3691 543.124 100.036 543.623 105.693C544.006 105.137 544.506 104.804 545.123 104.693C545.058 105.131 545.224 105.465 545.623 105.693C549.365 96.4501 555.865 90.1171 565.123 86.6931Z" fill="black"/>
<path fill-rule="evenodd" clip-rule="evenodd" d="M701.123 87.6932C700.125 123.522 699.791 159.522 700.123 195.693C691.79 195.693 683.456 195.693 675.123 195.693C675.442 190.83 675.109 186.163 674.123 181.693C656.263 201.531 635.263 204.697 611.123 191.193C595.661 178.26 587.994 161.593 588.123 141.193C588.494 116.763 599.494 99.0962 621.123 88.1932C636.143 82.6552 650.477 83.9892 664.123 92.1932C668.441 95.5082 671.608 99.6742 673.623 104.693C673.813 98.7772 674.313 92.9442 675.123 87.1932C683.966 86.3692 692.633 86.5362 701.123 87.6932Z" fill="black"/>
<path fill-rule="evenodd" clip-rule="evenodd" d="M632.623 110.109C649.916 108.327 661.083 115.661 666.123 132.109C666.79 138.776 666.79 145.442 666.123 152.109C664.077 164.488 656.911 171.988 644.623 174.609C626.802 176.952 615.636 169.452 611.123 152.109C610.456 145.442 610.456 138.776 611.123 132.109C613.804 120.262 620.971 112.929 632.623 110.109Z" fill="white"/>
<path fill-rule="evenodd" clip-rule="evenodd" d="M35.1237 117.693C23.9697 118.688 12.6357 119.021 1.12374 118.693C1.12374 143.026 1.12374 167.36 1.12374 191.693C1.12374 192.36 1.12374 193.026 1.12374 193.693C0.125736 168.532 -0.207264 143.198 0.123736 117.693C11.7907 117.693 23.4567 117.693 35.1237 117.693Z" fill="#F25C07"/>
<path fill-rule="evenodd" clip-rule="evenodd" d="M420.123 151.693C419.122 132.073 418.789 111.073 419.123 88.6931C410.79 88.6931 402.456 88.6931 394.123 88.6931C394.454 113.532 394.121 138.199 393.123 162.693C391.821 137.478 391.821 112.311 393.123 87.1931C402.035 86.3771 410.868 86.5431 419.623 87.6931C420.123 109.024 420.29 130.357 420.123 151.693Z" fill="black"/>
<path fill-rule="evenodd" clip-rule="evenodd" d="M701.123 87.6931C701.123 124.026 701.123 160.36 701.123 196.693C692.123 196.693 683.123 196.693 674.123 196.693C674.123 191.693 674.123 186.693 674.123 181.693C675.109 186.163 675.442 190.83 675.123 195.693C683.456 195.693 691.79 195.693 700.123 195.693C699.791 159.522 700.125 123.522 701.123 87.6931Z" fill="black"/>
<path fill-rule="evenodd" clip-rule="evenodd" d="M497.123 87.6931C496.125 123.522 495.791 159.522 496.123 195.693C487.79 195.693 479.456 195.693 471.123 195.693C471.445 189.835 471.112 184.168 470.123 178.693C460.909 195.629 446.576 202.463 427.123 199.193C407.332 194.902 395.999 182.736 393.123 162.693C394.121 138.199 394.454 113.532 394.123 88.6931C402.456 88.6931 410.79 88.6931 419.123 88.6931C418.789 111.073 419.122 132.073 420.123 151.693C424.424 173.68 437.09 180.18 458.123 171.193C465.819 164.963 469.652 156.797 469.623 146.693C470.123 126.696 470.29 106.696 470.123 86.6931C479.305 86.3661 488.305 86.7001 497.123 87.6931Z" fill="black"/>
<path fill-rule="evenodd" clip-rule="evenodd" d="M545.123 104.693C544.506 104.804 544.006 105.137 543.623 105.693C543.124 100.036 542.957 94.3691 543.123 88.6931C535.123 88.6931 527.123 88.6931 519.123 88.6931C519.123 124.36 519.123 160.026 519.123 195.693C527.456 195.693 535.79 195.693 544.123 195.693C543.956 174.69 544.123 153.69 544.623 132.693C545.502 128.057 547.168 123.724 549.623 119.693C551.4 117.403 553.567 115.736 556.123 114.693C550.271 120.062 546.771 126.729 545.623 134.693C545.123 155.357 544.956 176.024 545.123 196.693C535.79 196.693 526.456 196.693 517.123 196.693C516.956 160.358 517.123 124.025 517.623 87.6931C526.378 86.5431 535.211 86.3771 544.123 87.1931C545.098 92.9341 545.431 98.7681 545.123 104.693Z" fill="black"/>
<path fill-rule="evenodd" clip-rule="evenodd" d="M497.123 87.6931C497.123 124.026 497.123 160.36 497.123 196.693C488.123 196.693 479.123 196.693 470.123 196.693C470.123 190.693 470.123 184.693 470.123 178.693C471.112 184.168 471.445 189.835 471.123 195.693C479.456 195.693 487.79 195.693 496.123 195.693C495.791 159.522 496.125 123.522 497.123 87.6931Z" fill="black"/>
<path fill-rule="evenodd" clip-rule="evenodd" d="M1.12305 191.693C22.792 191.526 44.459 191.693 66.123 192.193C66.679 192.576 67.012 193.076 67.123 193.693C66.79 193.693 66.456 193.693 66.123 193.693C44.456 193.693 22.79 193.693 1.12305 193.693C1.12305 193.026 1.12305 192.36 1.12305 191.693Z" fill="#F4782E"/>
<path fill-rule="evenodd" clip-rule="evenodd" d="M145.123 238.693C143.793 223.291 143.793 207.791 145.123 192.193C166.362 191.367 187.528 191.533 208.622 192.693C209.122 168.029 209.289 143.362 209.122 118.693C196.076 118.316 183.076 118.816 170.122 120.193C174.071 121 174.071 121.5 170.122 121.693C170.122 123.026 170.122 124.36 170.122 125.693C169.122 125.693 168.122 125.693 167.122 125.693C167.043 124.263 167.376 122.929 168.122 121.693C167.455 121.36 166.789 121.026 166.122 120.693C159.982 121.963 153.983 123.63 148.122 125.693C155.199 121.724 162.865 119.224 171.122 118.193C184.451 117.693 197.785 117.526 211.122 117.693C211.122 143.026 211.122 168.36 211.122 193.693C189.455 193.693 167.789 193.693 146.123 193.693C146.372 208.718 146.039 223.718 145.123 238.693Z" fill="#F47931"/>
<path fill-rule="evenodd" clip-rule="evenodd" d="M35.123 117.693C75.571 123.307 99.071 146.307 105.623 186.693C107.813 165.477 116.98 147.977 133.123 134.193C137.528 130.323 149.528 123.49 155.123 121.693C166.02 118.193 165.983 119.463 172.123 118.193C172.79 118.526 168.435 121.176 168.123 121.693C167.377 122.929 167.044 124.263 167.123 125.693C168.123 125.693 168.123 122.693 169.123 122.693C169.123 121.36 170.123 123.026 170.123 121.693C174.072 121.5 174.072 121 170.123 120.193C183.077 118.816 196.077 118.316 209.123 118.693C209.29 143.362 209.123 168.029 208.623 192.693C187.529 191.533 166.363 191.367 145.123 192.193C143.793 207.791 143.793 223.291 145.123 238.693C137.221 279.593 112.554 302.593 71.123 307.693C70.055 306.759 68.722 306.425 67.123 306.693C67.123 269.026 67.123 231.36 67.123 193.693C67.012 193.076 66.679 192.576 66.123 192.193C44.459 191.693 22.792 191.526 1.12305 191.693C1.12305 167.36 1.12305 143.026 1.12305 118.693C12.635 119.021 23.969 118.688 35.123 117.693Z" fill="#F48544"/>
<path fill-rule="evenodd" clip-rule="evenodd" d="M66.123 193.693C66.456 193.693 66.79 193.693 67.123 193.693C67.123 231.36 67.123 269.026 67.123 306.693C68.722 306.425 70.055 306.759 71.123 307.693C69.456 307.693 67.79 307.693 66.123 307.693C66.123 269.693 66.123 231.693 66.123 193.693Z" fill="#F3610C"/>
</svg>
